<?xml version="1.0" encoding="utf-8"?>
<!-- Generator: Adobe Illustrator 16.0.0, SVG Export Plug-In . SVG Version: 6.00 Build 0)  -->
<!DOCTYPE svg PUBLIC "-//W3C//DTD SVG 1.1//EN" "http://www.w3.org/Graphics/SVG/1.1/DTD/svg11.dtd">
<svg version="1.1" id="Layer_1" xmlns="http://www.w3.org/2000/svg" xmlns:xlink="http://www.w3.org/1999/xlink" x="0px" y="0px"
	 width="51.119px" height="34.383px" viewBox="0 0 51.119 34.383" enable-background="new 0 0 51.119 34.383" xml:space="preserve">
<path fill-rule="evenodd" clip-rule="evenodd" fill="#F4898B" d="M43.31,34.271c-0.585,0-1,0-1.707,0c0-2.913,0.002-5.76,0-8.609
	c-0.002-1.841,0.021-3.684-0.025-5.524c-0.05-1.887-0.792-2.349-2.343-1.354c-4.059,2.608-7.775,5.602-10.502,9.669
	c-0.781,1.163-1.609,2.301-2.498,3.381c-1.118,1.359-2.573,2.144-4.363,2.268c-6.177,0.435-12.335,0.541-18.407-0.97
	c-0.79-0.197-1.581-0.47-2.3-0.843C0.687,32.041-0.013,31.539,0,31.172c0.024-0.723,0.274-1.839,0.777-2.086
	c5.5-2.681,11.047-5.273,16.641-7.757c0.787-0.348,1.902-0.039,2.852,0.077c1.486,0.178,2.86-0.042,3.824-1.236
	c3.75-4.644,8.457-8.226,13.021-11.977c2.277-1.872,4.442-3.88,6.637-5.852c0.352-0.317,0.622-0.741,0.871-1.152
	c0.821-1.36,1.315-1.532,2.688-0.623c2.25,1.49,3.038,3.803,3.264,6.341c0.26,2.875-0.351,5.658-2.43,7.648
	c-3.558,3.414-4.122,7.676-4.265,12.208C43.805,29.223,43.515,31.678,43.31,34.271z"/>
</svg>
