<?xml version="1.0" encoding="utf-8"?>
<!-- Generator: Adobe Illustrator 16.0.0, SVG Export Plug-In . SVG Version: 6.00 Build 0)  -->
<!DOCTYPE svg PUBLIC "-//W3C//DTD SVG 1.1//EN" "http://www.w3.org/Graphics/SVG/1.1/DTD/svg11.dtd">
<svg version="1.1" id="Layer_1" xmlns="http://www.w3.org/2000/svg" xmlns:xlink="http://www.w3.org/1999/xlink" x="0px" y="0px"
	 width="51.119px" height="34.383px" viewBox="0 0 51.119 34.383" enable-background="new 0 0 51.119 34.383" xml:space="preserve">
<path fill-rule="evenodd" clip-rule="evenodd" fill="#3B97D3" d="M14.4,31.464c0,0.752-0.038,1.248,0.008,1.735
	c0.076,0.819-0.181,1.211-1.083,1.182c-3.668-0.12-7.337-0.192-11.006-0.29c-0.931-0.025-1.445-0.327-1.378-1.457
	c0.112-1.905-0.029-3.767-0.625-5.663c-0.777-2.471,0.005-4.955,0.892-7.317c0.085-0.226,0.761-0.426,1.076-0.336
	c1.666,0.472,3.273,1.175,4.956,1.552c5.445,1.22,9.526,0.304,13.075-5.85c0.56,0.218,1.137,0.37,1.64,0.654
	c0.88,0.498,1.738,1.043,2.562,1.63c1.012,0.72,2.193,1.337,2.928,2.287c2.648,3.421,6.626,4.419,10.345,5.824
	c1.58,0.596,3.403,0.521,5.101,0.839c2.189,0.409,4.367,0.886,6.541,1.372c0.731,0.164,1.266,0.589,1.195,1.459
	c-0.007,0.077-0.029,0.182,0.01,0.229c1.238,1.504-0.209,1.713-1.051,1.898c-4.307,0.948-8.605,2.033-12.969,2.595
	c-3.207,0.413-6.527,0.321-9.76,0.03c-2.697-0.242-5.333-1.13-8.008-1.675C17.461,31.878,16.046,31.717,14.4,31.464z"/>
</svg>
